<?xml version="1.0" standalone="no"?>
<!DOCTYPE svg PUBLIC "-//W3C//DTD SVG 20010904//EN"
 "http://www.w3.org/TR/2001/REC-SVG-20010904/DTD/svg10.dtd">
<svg version="1.0" xmlns="http://www.w3.org/2000/svg"
 width="474.000000pt" height="474.000000pt" viewBox="0 0 474.000000 474.000000"
 preserveAspectRatio="xMidYMid meet">

<g transform="translate(0.000000,474.000000) scale(0.100000,-0.100000)"
fill="#000000" stroke="none">
<path d="M2110 4731 c0 -4 -30 -11 -67 -15 -172 -17 -438 -93 -635 -181 -659
-295 -1160 -885 -1333 -1574 -22 -87 -55 -269 -55 -303 0 -15 -4 -28 -10 -28
-6 0 -10 -93 -10 -260 0 -143 4 -260 8 -260 4 0 13 -42 20 -94 15 -117 69
-333 117 -462 85 -229 239 -498 393 -688 185 -228 451 -445 722 -589 235 -125
559 -229 788 -253 34 -4 62 -11 62 -15 0 -5 117 -9 260 -9 143 0 260 4 260 8
0 4 44 14 98 21 53 7 156 28 227 46 811 207 1460 836 1690 1636 37 127 75 319
75 376 0 18 5 33 10 33 6 0 10 92 10 255 0 163 -4 255 -10 255 -5 0 -10 13
-10 28 0 15 -9 78 -20 140 -134 732 -611 1364 -1275 1692 -231 114 -477 192
-697 221 -54 7 -98 17 -98 21 0 4 -117 8 -260 8 -143 0 -260 -4 -260 -9z m788
-793 c1 -28 8 -66 16 -82 8 -17 24 -63 36 -103 27 -89 78 -177 148 -253 59
-66 190 -169 240 -189 17 -7 32 -18 32 -23 0 -6 -8 -4 -17 3 -16 13 -17 12 -4
-3 9 -13 18 -15 30 -9 11 6 35 3 71 -9 30 -10 87 -21 126 -25 l71 -7 7 -81 c3
-45 6 -162 6 -260 0 -154 -2 -178 -16 -184 -26 -10 -210 14 -316 41 -114 29
-230 78 -335 140 -41 25 -77 46 -79 46 -1 0 -5 -280 -7 -622 -3 -609 -4 -625
-26 -703 -29 -105 -106 -265 -164 -341 -102 -135 -265 -262 -415 -325 -185
-77 -438 -96 -624 -46 -124 33 -270 103 -330 160 -27 24 -48 42 -48 39 0 -3
-9 3 -20 13 -21 19 -28 41 -8 29 6 -4 8 -3 5 4 -4 5 -15 8 -25 5 -24 -6 -109
96 -90 110 9 6 8 7 -4 3 -12 -3 -25 5 -42 27 -37 49 -102 172 -85 162 11 -6
12 -5 1 6 -6 7 -12 22 -12 33 0 18 -2 19 -11 6 -8 -12 -10 -9 -6 12 2 15 0 26
-6 25 -11 -2 -20 26 -42 132 -17 78 -22 311 -9 333 5 7 8 22 9 33 4 66 6 76
14 71 5 -4 7 4 3 16 -4 16 -2 19 8 13 10 -6 11 -2 6 19 -4 15 -3 25 1 23 4 -3
9 5 9 17 2 22 41 117 53 126 3 3 15 22 26 43 11 20 23 37 28 37 4 0 6 4 3 8
-7 12 74 103 85 96 5 -3 6 1 4 9 -6 15 72 90 86 82 5 -4 7 0 4 7 -5 14 49 55
66 50 6 -1 8 2 4 8 -3 5 2 13 12 17 10 4 20 10 23 14 11 15 184 91 262 115
104 31 317 46 345 23 11 -9 14 -10 9 -1 -4 7 -1 12 9 12 9 0 13 -4 10 -10 -3
-5 0 -7 8 -4 18 7 27 -100 27 -341 l0 -181 -127 1 c-127 0 -129 0 -203 -36
-102 -48 -170 -116 -218 -216 -36 -76 -37 -81 -37 -188 1 -90 5 -120 23 -165
28 -71 85 -145 142 -187 25 -18 57 -42 73 -54 95 -73 329 -63 448 18 24 17 51
28 59 26 12 -4 12 -3 1 5 -10 8 -9 12 8 24 37 26 88 101 117 173 l29 70 2
1100 c1 605 2 1103 2 1108 1 4 118 7 260 7 l259 0 0 -52z"/>
<path d="M3386 3271 c-3 -5 2 -15 12 -22 15 -12 16 -12 5 2 -7 9 -10 19 -6 22
3 4 4 7 0 7 -3 0 -8 -4 -11 -9z"/>
<path d="M3425 3230 c3 -5 11 -10 16 -10 6 0 7 5 4 10 -3 6 -11 10 -16 10 -6
0 -7 -4 -4 -10z"/>
<path d="M3500 3200 c-8 -5 -10 -10 -5 -10 6 0 17 5 25 10 8 5 11 10 5 10 -5
0 -17 -5 -25 -10z"/>
<path d="M3563 3170 c22 -14 64 -23 51 -11 -5 5 -22 11 -39 15 -24 5 -27 4
-12 -4z"/>
<path d="M1993 2723 c9 -2 23 -2 30 0 6 3 -1 5 -18 5 -16 0 -22 -2 -12 -5z"/>
<path d="M1878 2713 c6 -2 18 -2 25 0 6 3 1 5 -13 5 -14 0 -19 -2 -12 -5z"/>
<path d="M1828 2703 c6 -2 18 -2 25 0 6 3 1 5 -13 5 -14 0 -19 -2 -12 -5z"/>
<path d="M1730 2680 c-8 -5 -12 -11 -10 -14 3 -2 14 2 24 10 22 15 10 19 -14
4z"/>
<path d="M1638 2637 c-16 -6 -28 -15 -28 -19 0 -7 55 16 69 28 7 7 -13 2 -41
-9z"/>
<path d="M1545 2583 l-30 -25 40 23 c51 29 51 29 34 29 -8 -1 -27 -12 -44 -27z"/>
<path d="M1480 2539 c0 -5 5 -7 10 -4 6 3 10 8 10 11 0 2 -4 4 -10 4 -5 0 -10
-5 -10 -11z"/>
<path d="M1429 2493 c-13 -16 -12 -17 4 -4 9 7 17 15 17 17 0 8 -8 3 -21 -13z"/>
<path d="M1323 2405 c0 -8 4 -12 9 -9 4 3 8 9 8 15 0 5 -4 9 -8 9 -5 0 -9 -7
-9 -15z"/>
<path d="M1285 2353 l-18 -28 27 24 c28 26 31 31 17 31 -5 0 -17 -12 -26 -27z"/>
<path d="M1101 2365 c1 -19 18 -51 18 -35 0 8 -4 22 -9 30 -5 8 -9 11 -9 5z"/>
<path d="M1246 2304 c-9 -24 -2 -26 12 -4 7 11 8 20 3 20 -5 0 -12 -7 -15 -16z"/>
<path d="M1207 2238 c-10 -17 -16 -33 -13 -35 2 -3 12 9 21 27 21 41 15 48 -8
8z"/>
<path d="M1167 2163 c3 -7 6 -13 8 -13 2 0 5 6 8 13 3 8 -1 14 -8 14 -7 0 -11
-6 -8 -14z"/>
<path d="M1111 2009 c-6 -18 -11 -37 -10 -43 0 -6 7 7 15 28 8 22 12 41 10 43
-2 2 -9 -10 -15 -28z"/>
<path d="M1052 1965 c0 -16 2 -22 5 -12 2 9 2 23 0 30 -3 6 -5 -1 -5 -18z"/>
<path d="M1082 1855 c0 -16 2 -22 5 -12 2 9 2 23 0 30 -3 6 -5 -1 -5 -18z"/>
<path d="M1051 1844 c0 -11 3 -14 6 -6 3 7 2 16 -1 19 -3 4 -6 -2 -5 -13z"/>
<path d="M1067 1680 c3 -11 7 -20 9 -20 2 0 4 9 4 20 0 11 -4 20 -9 20 -5 0
-7 -9 -4 -20z"/>
<path d="M2376 1685 c-3 -8 -1 -15 4 -15 6 0 10 7 10 15 0 8 -2 15 -4 15 -2 0
-6 -7 -10 -15z"/>
<path d="M2512 1680 c0 -14 2 -19 5 -12 2 6 2 18 0 25 -3 6 -5 1 -5 -13z"/>
<path d="M1082 1620 c0 -14 2 -19 5 -12 2 6 2 18 0 25 -3 6 -5 1 -5 -13z"/>
<path d="M2289 1573 c-13 -16 -12 -17 4 -4 9 7 17 15 17 17 0 8 -8 3 -21 -13z"/>
<path d="M1080 1551 c0 -6 4 -13 10 -16 6 -3 7 1 4 9 -7 18 -14 21 -14 7z"/>
<path d="M2454 1520 c0 -13 4 -16 10 -10 7 7 7 13 0 20 -6 6 -10 3 -10 -10z"/>
<path d="M1100 1484 c0 -10 5 -26 10 -34 8 -11 9 -7 4 15 -8 37 -14 45 -14 19z"/>
<path d="M2424 1475 c-4 -8 -11 -12 -18 -8 -6 3 -8 3 -4 -2 4 -4 3 -17 -3 -29
-10 -21 -10 -21 6 -1 8 11 22 28 30 38 8 9 10 17 5 17 -6 0 -13 -7 -16 -15z"/>
<path d="M2345 1390 c-15 -16 -33 -27 -38 -23 -6 4 -7 1 -3 -6 6 -9 13 -8 29
6 41 34 49 44 45 48 -2 3 -17 -9 -33 -25z"/>
<path d="M1805 1391 c-3 -5 -2 -12 3 -15 5 -3 9 1 9 9 0 17 -3 19 -12 6z"/>
<path d="M1837 1359 c7 -7 15 -10 18 -7 3 3 -2 9 -12 12 -14 6 -15 5 -6 -5z"/>
<path d="M2237 1358 c7 -8 10 -17 8 -20 -3 -3 6 -4 21 -2 31 3 39 10 25 19 -6
3 -11 1 -11 -6 0 -7 -10 -5 -27 7 -20 13 -25 13 -16 2z"/>
<path d="M1140 1340 c-6 -11 -8 -20 -6 -20 3 0 10 9 16 20 6 11 8 20 6 20 -3
0 -10 -9 -16 -20z"/>
<path d="M1900 1320 c8 -5 18 -6 22 -3 5 2 15 -1 23 -7 11 -9 15 -9 15 -1 0 6
-3 12 -7 12 -49 7 -66 7 -53 -1z"/>
<path d="M2198 1313 c7 -3 16 -2 19 1 4 3 -2 6 -13 5 -11 0 -14 -3 -6 -6z"/>
<path d="M1171 1299 c-1 -9 7 -23 17 -30 15 -12 16 -12 6 1 -6 8 -14 22 -17
30 -5 13 -6 12 -6 -1z"/>
<path d="M1211 1199 c23 -33 26 -35 26 -14 0 8 -4 15 -9 15 -4 0 -7 5 -5 11 1
6 -6 13 -16 14 -15 3 -15 0 4 -26z"/>
</g>
</svg>
